<?xml version="1.0" encoding="UTF-8" standalone="no"?>
<svg
   width="512"
   height="512"
   style="enable-background:new 0 0 512 512"
   xml:space="preserve"
   version="1.1"
   id="svg6"
   sodipodi:docname="time-sync.svg"
   inkscape:version="1.1.1 (3bf5ae0d25, 2021-09-20, custom)"
   xmlns:inkscape="http://www.inkscape.org/namespaces/inkscape"
   xmlns:sodipodi="http://sodipodi.sourceforge.net/DTD/sodipodi-0.dtd"
   xmlns="http://www.w3.org/2000/svg"
   xmlns:svg="http://www.w3.org/2000/svg"><defs
     id="defs10" /><sodipodi:namedview
     id="namedview8"
     pagecolor="#ffffff"
     bordercolor="#666666"
     borderopacity="1.0"
     inkscape:pageshadow="2"
     inkscape:pageopacity="0.0"
     inkscape:pagecheckerboard="0"
     showgrid="false"
     inkscape:zoom="1.7050781"
     inkscape:cx="255.70676"
     inkscape:cy="256"
     inkscape:window-width="3840"
     inkscape:window-height="2107"
     inkscape:window-x="0"
     inkscape:window-y="0"
     inkscape:window-maximized="1"
     inkscape:current-layer="svg6" /><path
     d="M256 48C141.1 48 48 141.1 48 256s93.1 208 208 208 208-93.1 208-208S370.9 48 256 48zm0 398.7c-105.1 0-190.7-85.5-190.7-190.7 0-105.1 85.5-190.7 190.7-190.7 105.1 0 190.7 85.5 190.7 190.7 0 105.1-85.6 190.7-190.7 190.7z"
     id="path2" /><path
     d="M256 256h-96v17.3h113.3V128H256z"
     id="path4" /><path
     d="m 443.73809,124.2426 -3.722,3.754 30.108,30.075 30.074,-30.075 -3.855,-3.755 -23.727,23.528 V 62.364596 h -5.317 V 147.7696 Z m -47.854,-81.220004 -3.689,-3.754 30.075,-30.0750002 30.108,30.0750002 -3.855,3.755 -23.76,-23.528 V 104.9006 h -5.318 V 19.495596 Z"
     id="path259" /></svg>
