<svg xmlns="http://www.w3.org/2000/svg" width="512" height="512" xml:space="preserve"><path d="M364.172 293.613c11.988-34.529 6.316-70.638-11.91-98.966l14.166-82.325L258.106 74.71l-39.9 73.389c-31.861 10.937-58.691 35.76-70.68 70.289-11.988 34.525-6.315 70.633 11.911 98.965l-14.167 82.324 108.322 37.613 39.9-73.391c31.862-10.938 58.692-35.76 70.68-70.286zm-189.565-65.821c15.515-44.685 64.771-68.547 109.452-53.034 44.68 15.515 68.548 64.768 53.031 109.453-15.514 44.68-64.77 68.547-109.45 53.031-44.68-15.513-68.547-64.771-53.033-109.45zm219.213 4.267c-3.513 1.575-4.93 5.655-3.148 9.068l14.732 28.222c1.781 3.412.364 7.494-3.148 9.066l-29.052 13.02c-3.514 1.574-4.931 5.656-3.149 9.07l14.893 28.531c1.782 3.412.365 7.492-3.148 9.066l-29.369 13.162c-3.514 1.574-4.93 5.654-3.149 9.068l22.745 43.574c1.781 3.412 6.096 4.875 9.584 3.25l2.361-1.1a6.737 6.737 0 0 0 3.175-9.197l-14.386-28.316a6.706 6.706 0 0 1 3.186-9.174l28.989-13.379a6.659 6.659 0 0 0 3.147-9.154l-14.512-28.141a6.628 6.628 0 0 1 3.16-9.129l28.658-13.072a6.641 6.641 0 0 0 3.173-9.133l-14.386-28.038a6.676 6.676 0 0 1 3.16-9.162l29.249-13.502c3.495-1.614 4.862-5.708 3.038-9.098l-1.242-2.305c-1.824-3.391-6.191-4.876-9.705-3.302l-44.856 20.105zm-231.417-80.354c1.782 3.414.365 7.494-3.148 9.069l-29.052 13.019c-3.514 1.574-4.93 5.655-3.148 9.068l14.731 28.221c1.782 3.414.365 7.494-3.148 9.069l-29.37 13.162c-3.514 1.574-4.93 5.654-3.148 9.067l14.893 28.532c1.782 3.412.365 7.492-3.149 9.068L73.01 300.082c-3.514 1.574-7.805.049-9.536-3.389l-1.171-2.326a6.737 6.737 0 0 1 3.208-9.186l28.84-13.309a6.707 6.707 0 0 0 3.186-9.174l-14.46-28.465a6.66 6.66 0 0 1 3.203-9.136l28.828-13.092a6.625 6.625 0 0 0 3.177-9.122l-14.388-28.021a6.64 6.64 0 0 1 3.17-9.134l28.665-13.088a6.676 6.676 0 0 0 3.198-9.148l-14.587-28.724c-1.743-3.433-.279-7.493 3.253-9.023l2.403-1.04c3.533-1.53 7.881.011 9.664 3.424l22.74 43.576z"/></svg>